TYPE-2.mot
version=1
nRows=91
nColumns=10
inDegrees=yes
endheader
time	ground_force_vx	ground_force_vy	ground_force_vz	ground_force_px	ground_force_py	ground_force_pz	ground_torque_x	ground_torque_y	ground_torque_z
0.000000	0.000000	0.000000	0.000000	0.000000	0.000000	0.000000	0.000000	0.000000	0.000000
0.016667	0.000000	0.000000	0.000000	0.000000	0.000000	0.000000	0.000000	0.000000	0.000000
0.033333	0.000000	0.000000	0.000000	0.000000	0.000000	0.000000	0.000000	0.000000	0.000000
0.050000	0.000000	0.000000	0.000000	0.000000	0.000000	0.000000	0.000000	0.000000	0.000000
0.066667	0.000000	0.000000	0.000000	0.000000	0.000000	0.000000	0.000000	0.000000	0.000000
0.083333	0.000000	0.000000	0.000000	0.000000	0.000000	0.000000	0.000000	0.000000	0.000000
0.100000	0.000000	0.000000	0.000000	0.000000	0.000000	0.000000	0.000000	0.000000	0.000000
0.116667	0.000000	0.000000	0.000000	0.000000	0.000000	0.000000	0.000000	0.000000	0.000000
0.133333	0.000000	0.000000	0.000000	0.000000	0.000000	0.000000	0.000000	0.000000	0.000000
0.150000	0.000000	0.000000	0.000000	0.000000	0.000000	0.000000	0.000000	0.000000	0.000000
0.166667	0.000000	0.000000	0.000000	0.000000	0.000000	0.000000	0.000000	0.000000	0.000000
0.183333	0.000000	0.000000	0.000000	0.000000	0.000000	0.000000	0.000000	0.000000	0.000000
0.200000	0.000000	0.000000	0.000000	0.000000	0.000000	0.000000	0.000000	0.000000	0.000000
0.216667	0.000000	0.000000	0.000000	0.000000	0.000000	0.000000	0.000000	0.000000	0.000000
0.233333	0.000000	0.000000	0.000000	0.000000	0.000000	0.000000	0.000000	0.000000	0.000000
0.250000	0.000000	0.000000	0.000000	0.000000	0.000000	0.000000	0.000000	0.000000	0.000000
0.266667	0.000000	0.000000	0.000000	0.000000	0.000000	0.000000	0.000000	0.000000	0.000000
0.283333	0.000000	0.000000	0.000000	0.000000	0.000000	0.000000	0.000000	0.000000	0.000000
0.300000	0.000000	0.000000	0.000000	0.000000	0.000000	0.000000	0.000000	0.000000	0.000000
0.316667	0.000000	0.000000	0.000000	0.000000	0.000000	0.000000	0.000000	0.000000	0.000000
0.333333	0.000000	0.000000	0.000000	0.000000	0.000000	0.000000	0.000000	0.000000	0.000000
0.350000	0.000000	0.000000	0.000000	0.000000	0.000000	0.000000	0.000000	0.000000	0.000000
0.366667	0.000000	0.000000	0.000000	0.000000	0.000000	0.000000	0.000000	0.000000	0.000000
0.383333	0.000000	0.000000	0.000000	0.000000	0.000000	0.000000	0.000000	0.000000	0.000000
0.400000	0.000000	0.000000	0.000000	0.000000	0.000000	0.000000	0.000000	0.000000	0.000000
0.416667	-10.620623	-130.623900	-11.584619	0.300174	0.000844	-0.291906	0.000000	-0.012771	0.000000
0.433333	-67.120916	-189.842531	-21.456405	0.271995	0.000851	-0.294073	0.000000	0.143994	0.000000
0.450000	-59.134257	-240.417750	-12.417310	0.275996	0.000833	-0.288299	0.000000	0.037096	0.000000
0.466667	-51.643679	-253.046359	-3.893512	0.273328	0.000817	-0.283087	0.000000	0.083387	0.000000
0.483333	-71.743787	-266.511046	8.962193	0.257800	0.000793	-0.275495	0.000000	0.319294	0.000000
0.500000	-79.864622	-330.297059	11.246820	0.250087	0.000787	-0.273533	0.000000	0.461871	0.000000
0.516667	-87.651206	-374.322468	9.731592	0.243679	0.000787	-0.273707	0.000000	0.355688	0.000000
0.533333	-80.709594	-385.814797	11.542994	0.241563	0.000785	-0.273206	0.000000	0.217068	0.000000
0.550000	-74.757632	-391.711537	12.265084	0.240236	0.000785	-0.273054	0.000000	0.104119	0.000000
0.566667	-64.261940	-389.974757	8.641998	0.240974	0.000788	-0.274142	0.000000	0.054965	0.000000
0.583333	-55.369604	-375.584435	7.309502	0.240181	0.000789	-0.274178	0.000000	0.123098	0.000000
0.600000	-46.893702	-353.862744	6.905082	0.237542	0.000786	-0.273372	0.000000	0.194494	0.000000
0.616667	-38.259749	-332.234940	6.230901	0.234870	0.000783	-0.272520	0.000000	0.257851	0.000000
0.633333	-30.350837	-307.702359	7.403901	0.231693	0.000778	-0.270851	0.000000	0.296267	0.000000
0.650000	-23.728767	-286.661969	7.411275	0.226750	0.000773	-0.269151	0.000000	0.326929	0.000000
0.666667	-18.637309	-268.695241	6.671343	0.219467	0.000767	-0.267370	0.000000	0.322614	0.000000
0.683333	-14.854082	-252.378107	5.927161	0.210732	0.000761	-0.265452	0.000000	0.310849	0.000000
0.700000	-11.461801	-239.391078	5.090908	0.202075	0.000756	-0.263692	0.000000	0.353104	0.000000
0.716667	-8.846534	-230.588467	4.473413	0.193659	0.000750	-0.262062	0.000000	0.415357	0.000000
0.733333	-7.139049	-225.233780	3.762342	0.185714	0.000746	-0.260808	0.000000	0.468696	0.000000
0.750000	-5.644601	-222.992806	3.045376	0.178654	0.000744	-0.259897	0.000000	0.518077	0.000000
0.766667	-3.561871	-224.284447	2.968032	0.172767	0.000741	-0.258986	0.000000	0.525634	0.000000
0.783333	-0.912613	-228.550927	3.113916	0.168226	0.000739	-0.258310	0.000000	0.584387	0.000000
0.800000	3.090859	-235.749708	4.009146	0.165563	0.000737	-0.257680	0.000000	0.594181	0.000000
0.816667	7.600369	-244.584965	4.390536	0.163682	0.000736	-0.257432	0.000000	0.693807	0.000000
0.833333	14.466828	-257.359850	7.133804	0.163431	0.000734	-0.256718	0.000000	0.607525	0.000000
0.850000	20.838311	-274.634042	10.204905	0.162862	0.000732	-0.256147	0.000000	0.465789	0.000000
0.866667	27.491816	-294.439122	9.705915	0.161482	0.000734	-0.256903	0.000000	0.725186	0.000000
0.883333	35.726046	-318.470126	8.918583	0.160544	0.000737	-0.257915	0.000000	0.938041	0.000000
0.900000	45.304675	-344.963678	8.206944	0.159598	0.000740	-0.258813	0.000000	1.136775	0.000000
0.916667	58.614368	-369.630611	8.494286	0.159429	0.000742	-0.259496	0.000000	1.163985	0.000000
0.933333	71.419390	-387.599447	8.402879	0.159051	0.000745	-0.260472	0.000000	1.111087	0.000000
0.950000	82.962317	-397.040734	7.443593	0.158580	0.000750	-0.261825	0.000000	1.011663	0.000000
0.966667	93.592489	-393.134402	6.343290	0.158532	0.000754	-0.263052	0.000000	0.853613	0.000000
0.983333	102.272306	-373.632260	5.619828	0.158750	0.000757	-0.264085	0.000000	0.634016	0.000000
1.000000	105.555450	-337.358698	4.598507	0.158651	0.000760	-0.265030	0.000000	0.447558	0.000000
1.016667	102.711188	-289.812134	3.719840	0.158088	0.000761	-0.265374	0.000000	0.134594	0.000000
1.033333	85.295435	-228.346341	-1.361998	0.155415	0.000764	-0.266261	0.000000	0.089214	0.000000
1.050000	69.101340	-152.135696	-5.552147	0.156598	0.000768	-0.267780	0.000000	0.280437	0.000000
1.066667	44.386639	-92.878854	-5.865935	0.154171	0.000773	-0.269083	0.000000	0.135672	0.000000
1.083333	20.144411	-41.369610	-3.851654	0.148957	0.000774	-0.269568	0.000000	0.033665	0.000000
1.100000	0.000000	0.000000	0.000000	0.000000	0.000000	0.000000	0.000000	0.000000	0.000000
1.116667	0.000000	0.000000	0.000000	0.000000	0.000000	0.000000	0.000000	0.000000	0.000000
1.133333	0.000000	0.000000	0.000000	0.000000	0.000000	0.000000	0.000000	0.000000	0.000000
1.150000	0.000000	0.000000	0.000000	0.000000	0.000000	0.000000	0.000000	0.000000	0.000000
1.166667	0.000000	0.000000	0.000000	0.000000	0.000000	0.000000	0.000000	0.000000	0.000000
1.183333	0.000000	0.000000	0.000000	0.000000	0.000000	0.000000	0.000000	0.000000	0.000000
1.200000	0.000000	0.000000	0.000000	0.000000	0.000000	0.000000	0.000000	0.000000	0.000000
1.216667	0.000000	0.000000	0.000000	0.000000	0.000000	0.000000	0.000000	0.000000	0.000000
1.233333	0.000000	0.000000	0.000000	0.000000	0.000000	0.000000	0.000000	0.000000	0.000000
1.250000	0.000000	0.000000	0.000000	0.000000	0.000000	0.000000	0.000000	0.000000	0.000000
1.266667	0.000000	0.000000	0.000000	0.000000	0.000000	0.000000	0.000000	0.000000	0.000000
1.283333	0.000000	0.000000	0.000000	0.000000	0.000000	0.000000	0.000000	0.000000	0.000000
1.300000	0.000000	0.000000	0.000000	0.000000	0.000000	0.000000	0.000000	0.000000	0.000000
1.316667	0.000000	0.000000	0.000000	0.000000	0.000000	0.000000	0.000000	0.000000	0.000000
1.333333	0.000000	0.000000	0.000000	0.000000	0.000000	0.000000	0.000000	0.000000	0.000000
1.350000	0.000000	0.000000	0.000000	0.000000	0.000000	0.000000	0.000000	0.000000	0.000000
1.366667	0.000000	0.000000	0.000000	0.000000	0.000000	0.000000	0.000000	0.000000	0.000000
1.383333	0.000000	0.000000	0.000000	0.000000	0.000000	0.000000	0.000000	0.000000	0.000000
1.400000	0.000000	0.000000	0.000000	0.000000	0.000000	0.000000	0.000000	0.000000	0.000000
1.416667	0.000000	0.000000	0.000000	0.000000	0.000000	0.000000	0.000000	0.000000	0.000000
1.433333	0.000000	0.000000	0.000000	0.000000	0.000000	0.000000	0.000000	0.000000	0.000000
1.450000	0.000000	0.000000	0.000000	0.000000	0.000000	0.000000	0.000000	0.000000	0.000000
1.466667	0.000000	0.000000	0.000000	0.000000	0.000000	0.000000	0.000000	0.000000	0.000000
1.483333	0.000000	0.000000	0.000000	0.000000	0.000000	0.000000	0.000000	0.000000	0.000000
1.500000	0.000000	0.000000	0.000000	0.000000	0.000000	0.000000	0.000000	0.000000	0.000000
